<?xml version="1.0" encoding="UTF-8"?>
<!DOCTYPE svg PUBLIC "-//W3C//DTD SVG 1.1//EN" "http://www.w3.org/Graphics/SVG/1.1/DTD/svg11.dtd">
<!-- Creator: CorelDRAW 2021 (64 Bit) -->
<svg xmlns="http://www.w3.org/2000/svg" xml:space="preserve" width="210mm" height="297mm" version="1.1" style="shape-rendering:geometricPrecision; text-rendering:geometricPrecision; image-rendering:optimizeQuality; fill-rule:evenodd; clip-rule:evenodd"
viewBox="0 0 21000 29700"
 xmlns:xlink="http://www.w3.org/1999/xlink"
 xmlns:xodm="http://www.corel.com/coreldraw/odm/2003">
 <defs>
  <style type="text/css">
   <![CDATA[
    .str0 {stroke:black;stroke-width:100;stroke-miterlimit:22.9256}
    .str2 {stroke:black;stroke-width:75;stroke-miterlimit:22.9256}
    .str1 {stroke:black;stroke-width:150;stroke-linejoin:round;stroke-miterlimit:22.9256}
    .fil0 {fill:none}
    .fil1 {fill:#00C2DC}
    .fil2 {fill:#00C2DC;fill-rule:nonzero}
   ]]>
  </style>
 </defs>
 <g id="Camada_x0020_1">
  <metadata id="CorelCorpID_0Corel-Layer"/>
  <path class="fil0 str0" d="M10287.61 4863.09c2512.55,0 4549.37,2036.83 4549.37,4549.37 0,2512.55 -2036.82,4549.38 -4549.37,4549.38 -2512.55,0 -4549.38,-2036.83 -4549.38,-4549.38 0,-2512.54 2036.83,-4549.37 4549.38,-4549.37z"/>
  <path class="fil1 str1" d="M11455.35 12439.2c-83.12,0 -343.03,-65.62 -436.67,-85.59 -156.02,-33.46 -297.13,-59.79 -445.89,-94.54l108.03 -540.32 692.05 154.47c211.27,46.43 203.88,-15.95 150.97,202.06 -18.55,76.78 -66.53,278.72 -68.49,363.92zm-2283.4 -4223.84l-1657.11 0c11.29,-136.56 179.12,-384.41 267.05,-453.41 484.92,-380.92 1106.68,30.21 1390.06,453.41zm-126.05 -810.59c678.3,0 1541.29,162.11 2111.42,518.51 94.03,58.76 278.98,203.5 338.38,292.08l-1549.2 0c-53.7,-230.73 -486.36,-631.74 -751.2,-743.8l-149.4 -66.79zm1513.01 -1044.69c478.32,0 905.66,232.15 1188.92,432.4 302.7,214 602.56,517.87 810.59,828.49l-540.44 0c-89.88,-385.98 -673.9,-819.41 -1012.01,-1023.42l-435.51 -230.99c-2.47,-1.3 -7.92,-4.02 -11.55,-6.48zm-4322.98 2431.77c2197.55,0 8269.2,243.96 8141.72,-162.11 -744.45,-347.84 -1684.62,-1568.27 -2316.35,-1988.75 -684.79,-455.74 -1446.23,-659.23 -2348.91,-659.23 -828.36,0 -1665.27,398.42 -2257.34,876.99l-206.33 171.98c-70.42,69.64 -127.36,128.14 -197.79,198.43l-189.1 207.12c-253.8,265.75 -625.9,893.98 -625.9,1355.57zm1977.06 1593.9c9.99,-11.29 21.01,-23.99 33.07,-38.91 85.6,-105.83 137.74,-193.12 247.2,-275.34 733.69,-550.42 1203.69,368.33 1809.24,368.33 100,0 106.87,-18.02 198.18,-18.02l306.2 1260.89c-61.35,-14.27 -107.39,-34.37 -180.15,-36.05l-20.22 71.32c-478.71,3.11 -1003.45,-222.81 -1388.26,-464.04 -157.32,-98.7 -528.76,-383.38 -658.84,-512.04l-346.42 -356.14zm-1008.63 558.47c286.23,0 357.3,-27.11 612.42,-162.12 96.23,64.45 358.85,367.82 524.87,501.79 98.56,79.5 185.85,157.32 288.05,234.22 405.29,305.04 1098.52,701.52 1618.2,705.68 114.13,0.9 165.36,9.99 252.78,17.24l-20.24 71.47 775.06 164.45c113.09,22.44 152.78,19.97 243.69,80.67 536.03,357.82 87.81,277.93 982.96,277.93 -18.81,-80.66 -90.79,-228.39 -133.32,-299.07 -136.7,-227.23 -473.26,-505.42 -731.35,-565.6 26.32,-110.11 53.17,-113.09 -124.25,-145.91 -54.6,-10.25 -123.86,-29.31 -181.97,-34.23l-185.33 -1165.58c-17.24,-119.57 -56.03,-272.09 -66.79,-401.53 81.05,-18.93 124.38,-57.97 192.33,-95.84 75.49,-41.89 122.83,-64.85 196.36,-109.85 179.37,-109.98 361.98,-257.45 537.2,-363.4l518.26 -238.26c69.26,-24.77 68.48,-7.52 104.92,-57.19l-6412.62 0c4.28,188.84 433.83,1169.32 561.58,1383.71 56.54,94.94 54.85,112.71 171.32,152.91 76.13,26.33 181.05,48.51 275.87,48.51z"/>
  <ellipse class="fil0 str0" cx="10287.61" cy="9571.89" rx="6592.46" ry="6751.88"/>
  <path class="fil2 str2" d="M5448.55 5249.39l506.2 -482.67c132.65,-126.49 244.2,-196.6 333.91,-210.13 89.97,-13.76 178.21,24.96 264.96,115.95l66.07 69.29c57.83,60.65 87.7,121.59 89.39,182.6 1.44,60.77 -24.87,123.99 -78.97,189.69 75.6,-48.08 149.13,-70.18 220.37,-66.08 71.23,4.11 133.88,34.75 188.19,91.71l60.65 63.61c97.34,102.08 137.65,200.14 120.97,293.73 -16.94,93.81 -99.49,211.13 -247.42,352.19l-498.81 475.62 -1025.51 -1075.51zm514.12 -35.49l181.97 190.85 203.9 -194.43c30.82,-29.39 47.6,-56.22 49.62,-80.28 2.26,-24.28 -9.18,-49.61 -33.86,-75.49l-41.39 -43.4c-24.92,-26.14 -49.44,-38.52 -73.8,-37.43 -24.12,0.88 -51.72,16.37 -82.55,45.76l-203.89 194.42zm378.04 396.48l191.83 201.19 214.76 -204.77c32.3,-30.8 49.6,-59.06 52.15,-85.03 2.78,-26.19 -8.87,-52.74 -35.21,-80.35l-42.78 -44.87c-26.33,-27.62 -52.29,-40.53 -78.58,-38.99 -26.07,1.31 -55.12,17.25 -87.41,48.05l-214.76 204.77zm581.07 -1281.54l-141.21 -220.26 285.66 -183.14 141.21 220.25 -285.66 183.15zm660.84 1030.78l-567.06 -884.5 285.66 -183.15 567.06 884.51 -285.66 183.14zm534.4 -333.6l-545.09 -1382.48 309.96 -122.22 304.67 772.7 23.13 -9.12 44.89 -442.51 351.8 -138.71 -81.03 574.67 519.67 381.78 -363.22 143.2 -386.14 -300.39 -23.13 9.12 154.46 391.74 -309.97 122.22zm1957.77 -829.77c7.22,118.94 -18.12,208.7 -75.43,268.52 -57.64,59.87 -154.71,98.65 -291.93,116.09l-139.92 17.78c-152.41,19.38 -263.6,1.21 -333.13,-54.17 -69.92,-55.67 -114.77,-162.61 -134.91,-321.12l-27.36 -215.29c-20.02,-157.5 -3.34,-272.25 50.43,-343.65 53.38,-71.69 156.49,-117.08 308.91,-136.45l139.92 -17.78c152.42,-19.37 263.6,-1.22 333.23,54.85 69.92,55.68 114.76,162.61 134.78,320.11l20.91 164.6 -634.71 80.66 16.29 128.08c5.92,46.63 19.93,78.51 41.6,94.99 22.05,16.78 57.39,21.9 106.4,15.67l42.57 -5.41c45.64,-5.79 76.75,-17.66 92.98,-35.86 16.58,-18.24 24.12,-48.05 22.89,-90.13l326.48 -41.49zm-671.36 -240.25l310.25 -39.43 -4.64 -36.5c-8.81,-69.29 -23.82,-114.42 -44.94,-134.75 -21.12,-20.32 -58.08,-27.31 -110.8,-20.61l-42.58 5.42c-51.71,6.57 -85.44,22.18 -101.24,46.52 -16.09,24.71 -20.09,68.84 -11.98,132.71l5.93 46.64zm959.15 543.33l132.45 -1042.29 320.73 40.77 -22.95 148.17c37.08,-54 80.55,-90.72 130.08,-110.19 49.86,-19.42 112.66,-24.49 188.37,-14.87 124.04,15.76 206.48,53.37 247.06,112.45 40.9,59.11 51.85,162.16 33.2,308.84l-86.02 676.94 -330.54 -42 76.71 -603.61c9.66,-76.04 7.11,-126.16 -7.63,-150.69 -14.36,-24.85 -53.83,-41.2 -117.71,-49.31 -50.7,-6.45 -87.44,1.6 -109.5,23.85 -22.4,22.23 -38.77,75.44 -49.5,159.94l-74.22 584 -330.53 -42zm2190.29 210.03c-50.9,107.73 -116.3,174.23 -195.33,199.1 -79.34,24.75 -183.09,12.03 -311.76,-38.7l-131.22 -51.73c-142.94,-56.37 -231.67,-125.77 -265.98,-207.78 -34.5,-82.45 -22.37,-197.78 36.25,-346.42l79.59 -201.9c58.24,-147.69 128.07,-240.26 209.57,-276.99 81.3,-37.16 193.52,-27.34 336.46,29.02l131.22 51.73c142.93,56.36 231.65,125.77 265.71,208.42 34.52,82.46 22.37,197.77 -35.87,345.48l-60.85 154.35 -595.21 -234.68 -47.37 120.11c-17.24,43.73 -20.29,78.42 -9.23,103.28 11.26,25.33 39.77,46.82 85.73,64.94l39.92 15.74c42.8,16.88 75.78,21.45 98.77,13.31 23.3,-8.02 44.26,-30.52 63.43,-68.01l306.17 120.73zm-472.94 -533.65l290.94 114.72 13.49 -34.23c25.63,-64.98 34.19,-111.77 25.46,-139.76 -8.75,-27.97 -37.78,-51.88 -87.22,-71.38l-39.93 -15.74c-48.5,-19.12 -85.59,-21.66 -111.15,-7.93 -25.99,13.93 -50.73,50.69 -74.35,110.59l-17.24 43.73zm842.08 1141c-52.2,-33.46 -92.34,-69.31 -120.54,-108.03 -28.19,-38.72 -43.96,-80.39 -47.41,-125.51 -2.66,-32.45 1.47,-65.41 12.42,-97.65 10.84,-32.71 33.89,-76.21 68.82,-130.71l30.71 -47.9 228.18 -355.92 -101.52 -65.08 131.28 -204.78 101.53 65.09 109.22 -170.36 280.49 179.82 -109.21 170.37 375.13 240.5 -131.28 204.77 -375.13 -240.49 -231.5 361.08c-34.39,53.63 -50.24,91.62 -47.58,113.97 2.67,22.35 22.17,44.97 58.59,68.33 34.42,22.06 61.69,30.63 82.3,25.64 20.61,-5 42.81,-26.38 66.9,-63.95l47.26 -73.71 234.03 150.04 -64 99.81c-60.49,94.35 -127.07,149.61 -199.63,166.21 -72.67,16.15 -155.84,-5.61 -249.63,-65.74l-149.43 -95.8zm1457.7 848.61c-91.46,76.37 -178.75,109.24 -260.9,98.6 -82.4,-10.87 -171.21,-66 -266.66,-166.11l-97.33 -102.07c-106.03,-111.2 -157.39,-211.46 -154.06,-300.3 3.32,-89.31 62.8,-188.87 178.45,-299.14l157.05 -149.76c114.9,-109.55 217.16,-164.22 306.54,-163.3 89.39,0.43 187.11,56.5 293.13,167.7l97.34 102.07c106.02,111.2 157.38,211.46 153.56,300.77 -3.33,89.32 -62.8,188.87 -177.71,298.44l-120.08 114.49 -441.52 -463.05 -93.44 89.11c-34.02,32.44 -51.37,62.63 -51.77,89.84 -0.42,27.72 16.41,59.2 50.5,94.94l29.63 31.07c31.74,33.29 59.74,51.3 84.03,53.56 24.51,2.52 52.99,-9.09 86.13,-35.05l227.11 238.19zm-204.95 -682.97l215.82 226.34 26.62 -25.38c50.55,-48.21 77.98,-87.08 81.81,-116.14 3.82,-29.06 -12.48,-62.95 -49.16,-101.41l-29.61 -31.07c-35.98,-37.73 -68.57,-55.61 -97.53,-53.89 -29.44,1.72 -67.34,24.68 -113.93,69.11l-34.02 32.44z"/>
  <path class="fil2 str2" d="M6105.18 14175.4l884.72 -1194.01 323.56 239.74 -679.05 916.45 533.77 395.5 -205.67 277.57 -857.33 -635.25zm1544.2 301.75l-74.94 150.3c-40.74,81.71 -58.37,136.12 -53.15,163.85 5.05,27.27 30.53,52.53 75.65,75.03l36.59 18.24c44.51,22.2 79.25,27.34 104.07,14.96 24.68,-12.06 57.38,-59.32 98.42,-141.64l74.95 -150.31c41.36,-82.93 59.58,-137.79 54.36,-164.75 -5.05,-27.27 -30.06,-51.92 -74.58,-74.12l-36.58 -18.25c-45.13,-22.5 -80.63,-27.64 -105.76,-14.66 -25.28,12.52 -58.28,59.63 -99.03,141.35zm-294.39 -174.6c70.99,-142.38 148.6,-228.54 232.97,-258.04 84.54,-29.8 195.18,-10.43 332.98,58.29l125.62 62.64c137.8,68.71 219.84,145.41 246.91,230.86 27.21,85.15 5.1,198.97 -65.9,341.35l-96.69 193.91c-71.3,142.99 -148.91,229.16 -233.29,258.66 -84.22,29.18 -194.86,9.81 -332.66,-58.9l-125.62 -62.64c-137.8,-68.71 -219.85,-145.42 -247.22,-230.25 -27.22,-85.13 -5.09,-198.98 66.21,-341.97l96.69 -193.91zm1820.06 924.1c-1.46,5.26 -3.3,13.23 -5.54,23.93 -2.26,10.67 -4.09,18.65 -5.55,23.91 -36.26,131.35 -93.05,216.76 -170.05,256.3 -77.34,39.43 -188.91,39.03 -335.04,-1.31l-135.64 -37.43c-148.43,-40.97 -243.69,-100.48 -286.84,-178.49 -43.06,-78.32 -43.22,-194.28 -0.7,-348.32l57.56 -208.52c42.34,-153.37 101.96,-252.84 179.19,-298.32 77.22,-45.48 189.53,-47.71 337.96,-6.74l135.64 37.44c144.82,39.98 240.23,96.35 286.56,169.23 46.01,72.78 51.13,174.56 15.15,304.94l-7.44 26.93 -323.15 -89.2 2.63 -9.53c14.41,-52.21 15.52,-90.78 3.31,-115.7 -11.87,-24.84 -41.01,-43.49 -87.31,-56.27l-43.36 -11.96c-48.6,-13.42 -84.11,-11.56 -106.6,5.91 -22.4,17.14 -45.84,70.05 -70.13,158.06l-44.6 161.58c-24.29,88.01 -31.13,144.79 -20.7,171 10.53,25.88 40.06,45.7 88.66,59.11l43.34 11.96c46.64,12.88 81.73,11.25 104.84,-4.63 23.21,-16.23 42.45,-52.61 58.04,-109.1l6.61 -23.98 323.16 89.2zm526.8 261.08l91.38 6.97c33.29,2.53 58.66,-3.05 76.46,-17.07 17.82,-14.01 27.71,-36.15 30.04,-66.73l4.17 -54.69c2.38,-31.25 -4.01,-54.97 -19.5,-71.53 -15.47,-16.55 -39.71,-25.91 -72.99,-28.45l-91.38 -6.97c-33.98,-2.58 -60.04,3.29 -78.56,17.59 -18.52,14.31 -28.74,36.41 -31.08,66.99l-4.16 54.69c-2.34,30.58 4.42,53.97 20.59,70.59 16.16,16.61 41.06,26.02 75.03,28.61zm-348.66 -598.54c8.94,-99.43 42.26,-168.98 99.9,-207.98 57.64,-39 149.99,-53.83 276.37,-44.2l158.3 12.07c147.42,11.24 249.71,45.35 307.56,102.37 57.49,57.01 81.68,147.68 72.2,272.02l-54.76 718.46 -334.27 -25.48 7.27 -95.46c-30.68,34.91 -66.09,60.23 -105.85,75.29 -39.76,15.09 -85.27,20.51 -136.23,16.62l-120.59 -9.2c-89.33,-6.8 -156.71,-37.23 -201.1,-91.52 -44.75,-53.97 -63.36,-128.17 -56.23,-221.58l7.43 -97.49c6.89,-90.36 39.72,-157.91 98.44,-202.3 58.75,-44.37 139.39,-62.48 241.3,-54.72l91.72 7c47.9,3.65 90.42,15.08 127.56,34.32 37.15,19.24 66.93,45.42 89,78.53l15.64 -205.17c2.44,-31.94 -2.94,-55.59 -16.12,-70.94 -13.2,-15.01 -36.1,-23.93 -68.37,-26.39l-56.72 -4.33c-40.77,-3.1 -68.7,0.25 -84.14,9.99 -15.41,9.42 -24.01,28.23 -26.16,56.44l-332.15 -26.35zm2025.86 361.27c0.41,5.44 1.37,13.57 2.88,24.39 1.5,10.81 2.47,18.94 2.88,24.38 10.36,135.87 -14.17,235.46 -73.24,298.73 -59.41,63.3 -164.52,100.7 -315.69,112.21l-140.3 10.7c-153.54,11.71 -263.31,-12.05 -330.33,-70.83 -67.03,-59.12 -106.45,-168.19 -118.58,-327.51l-16.45 -215.7c-12.09,-158.64 10.33,-272.42 67.6,-341.37 57.28,-68.94 162.18,-109.06 315.72,-120.76l140.3 -10.69c149.81,-11.42 258.68,9.32 326.95,62.21 67.92,52.9 107.2,146.94 117.48,281.8l2.13 27.86 -334.27 25.48 -0.74 -9.85c-4.12,-54.02 -16.14,-90.69 -36.07,-110.01 -19.58,-19.35 -53.31,-27.02 -101.21,-23.38l-44.83 3.43c-50.28,3.82 -83.06,17.6 -98.31,41.65 -15.28,23.72 -19.41,81.44 -12.48,172.47l12.75 167.14c6.94,91.04 19.72,146.78 38.42,167.91 18.67,20.79 53.16,29.43 103.43,25.59l44.84 -3.41c48.23,-3.68 80.69,-17.09 97.07,-39.85 16.34,-23.13 22.12,-63.88 17.67,-122.31l-1.89 -24.81 334.27 -25.47zm-616.79 944.94l-9.79 -128.4 238.48 -18.19c31.92,-2.43 53.27,-9.19 64.37,-20.63 11.11,-11.09 15.78,-30.58 13.65,-58.45 -1.89,-24.78 -9.32,-41.64 -22,-50.93 -12.69,-9.62 -32.78,-13.21 -60.63,-11.09l-99.88 7.61 -16 -209.93 101.91 -7.77 7.46 97.83 98.17 -7.49c51.29,-3.91 90.12,7.83 117.17,35.49 26.71,27.7 42.44,72.62 47.2,135.13 5.88,77.1 -8.15,130.79 -41.68,161.36 -33.89,30.61 -102.46,49.85 -205.73,57.72l-232.7 17.74zm994.02 -1258.61l44.69 161.9c24.3,88.01 47.55,140.26 69.95,157.41 21.99,16.9 57.82,18.67 106.43,5.26l39.4 -10.88c47.95,-13.23 77.23,-32.63 87.43,-58.41 10.3,-25.47 3.04,-82.48 -21.44,-171.15l-44.69 -161.9c-24.65,-89.33 -47.76,-142.33 -69.65,-158.89 -21.98,-16.91 -57.06,-18.55 -105.02,-5.3l-39.4 10.87c-48.61,13.41 -78.46,33.31 -88.48,59.76 -10.44,26.2 -3.51,83.32 20.78,171.33zm-335.68 66.84c-42.33,-153.36 -42.17,-269.32 0.89,-347.65 42.97,-78.66 138.22,-138.18 286.66,-179.15l135.3 -37.34c148.44,-40.96 260.73,-38.74 337.97,6.74 77.13,45.16 136.75,144.61 179.08,297.98l57.65 208.87c42.51,154.03 42.36,270 -0.71,348.32 -43.14,78 -138.4,137.51 -286.82,178.48l-135.32 37.35c-148.43,40.96 -260.73,38.74 -337.78,-6.09 -77.14,-45.14 -136.76,-144.62 -179.27,-298.64l-57.65 -208.87zm546.85 -1045.79c5.36,84.75 -2.94,150.66 -25.28,197.82 -22.32,47.15 -59.1,77.81 -110.33,91.95 -10.84,2.99 -22.61,5.18 -35.06,6.14 -12.79,1.06 -25.75,1.46 -39.56,1.37l-91.31 0.82c-13.05,0.08 -24.86,0.86 -35.49,2.03 -10.97,1.26 -21.08,2.99 -30.8,4.96 -22,6.08 -37.78,16.79 -47.97,32.32 -10.54,15.64 -15.78,37.58 -16.08,65.94l-106.08 29.28c-6.05,-82.09 1.82,-145.77 23.85,-191.43 22.13,-45.33 58.76,-75.24 110.32,-89.46 15.76,-4.35 30.82,-7.45 44.5,-9.1 13.68,-1.66 27.54,-2.66 41.43,-2.25l96.82 1.2c8.27,0.54 17.04,0.23 25.94,-0.8 9.23,-1.14 18.92,-3.11 29.11,-5.92 20.69,-5.7 35.86,-17.32 45.84,-34.92 9.99,-17.6 14.79,-41.18 14.07,-70.67l106.08 -29.28zm1467.01 604.22c45.13,110.28 50.04,203.43 15.04,278.51 -35.31,75.24 -114.73,143.2 -239.02,203.89l-126.74 61.88c-138.07,67.4 -249.18,86.01 -332.85,55.96 -84.12,-30.2 -161.01,-117.02 -231.11,-260.61l-95.2 -195.01c-69.65,-142.67 -90.82,-256.68 -62.89,-341.59 27.47,-85.06 110.47,-161.23 248.55,-228.64l126.75 -61.87c138.06,-67.41 249.17,-86.01 333.13,-55.35 84.13,30.2 161.02,117.01 230.66,259.69l72.79 149.09 -574.94 280.69 56.63 116.03c20.63,42.25 44.16,67.91 69.98,76.54 26.28,8.79 61.39,2.26 105.77,-19.41l38.57 -18.83c41.34,-20.19 66.98,-41.42 76.49,-63.89 9.81,-22.59 7.36,-53.25 -7.35,-92.69l295.74 -144.39zm-712.96 -11.33l281.04 -137.21 -16.13 -33.06c-30.65,-62.76 -59.39,-100.67 -85.94,-113.12 -26.54,-12.43 -63.77,-7.15 -111.54,16.16l-38.56 18.84c-46.84,22.87 -73.75,48.51 -80.88,76.63 -7.28,28.58 3.14,71.65 31.38,129.51l20.63 42.25zm827.15 -26.08l271.17 -214.03c28.88,26.69 54.97,39.95 79.01,39.62 23.79,-0.1 55.17,-15.33 93.14,-45.3l35.31 -27.86c41.18,-32.51 64.62,-60.56 71.04,-84.3 6.18,-23.52 -2.53,-50.51 -26.39,-80.73 -22.79,-28.87 -45.84,-43.24 -68.88,-43.28 -23.31,0.16 -59.32,15.58 -108.58,46.64l-180.72 117.47c-76.67,49.67 -151.78,71.64 -224.65,66.21 -73.07,-5.69 -132.2,-37.15 -177.57,-94.64l-51.92 -65.79c-57.41,-72.74 -74.69,-148.52 -51.82,-227.32 22.65,-79.09 84.36,-158.18 184.63,-237.33l162.06 -127.91c93.33,-73.67 177.8,-111.25 253.16,-112.58 74.86,-1.37 140.82,33.82 197.39,105.49l14.13 17.91 -259.92 205.16c-19.21,-22.16 -41.08,-32.25 -65.51,-30.75 -24.7,1.69 -53.74,15.5 -87.16,41.88l-33.7 26.59c-36.1,28.5 -56.85,54.44 -62.59,78.5 -5.76,24.07 2.6,50.04 24.96,78.38 18.58,23.54 37.28,35.68 56.06,36.93 18.99,1.49 43.89,-8.18 75.16,-28.51l200.25 -128.99c92.5,-60.42 172.67,-90.28 240.09,-90.1 67.41,0.17 124.72,30.45 172.01,90.35l55.72 70.6c60.16,76.21 81.44,157.06 63.7,241.81 -18.01,84.95 -72.9,163.88 -164.9,236.49l-175.43 138.48c-105.9,83.58 -199.98,126.6 -282.47,128.77 -82.21,1.96 -155.01,-36.93 -218.12,-116.89l-8.66 -10.97z"/>
 </g>
</svg>
