<?xml version="1.0" encoding="UTF-8"?>
<!DOCTYPE svg PUBLIC "-//W3C//DTD SVG 1.1//EN" "http://www.w3.org/Graphics/SVG/1.1/DTD/svg11.dtd">
<!-- Creator: CorelDRAW 2021 (64 Bit) -->
<svg xmlns="http://www.w3.org/2000/svg" xml:space="preserve" width="254mm" height="254mm" version="1.1" style="shape-rendering:geometricPrecision; text-rendering:geometricPrecision; image-rendering:optimizeQuality; fill-rule:evenodd; clip-rule:evenodd"
viewBox="0 0 25400 25400"
 xmlns:xlink="http://www.w3.org/1999/xlink"
 xmlns:xodm="http://www.corel.com/coreldraw/odm/2003">
 <defs>
  <style type="text/css">
   <![CDATA[
    .str0 {stroke:white;stroke-width:26.45;stroke-miterlimit:22.9256}
    .fil0 {fill:white}
   ]]>
  </style>
 </defs>
 <g id="Camada_x0020_1">
  <metadata id="CorelCorpID_0Corel-Layer"/>
  <path class="fil0 str0" d="M9368.43 20014.57l-1499.78 -1517.91c-421.14,-426.23 -416.97,-1119.51 9.25,-1540.65l4762.32 -4705.44 -4780.98 -4767.82c-424.27,-423.11 -425.23,-1116.4 -2.12,-1540.67l1506.79 -1510.95c423.11,-424.28 1116.4,-425.23 1540.67,-2.13l5451.72 5436.71c46.41,33.87 90.72,71.8 132.33,113.92l1215.42 1230.12 238.2 237.54c20.25,20.21 39.52,41.03 57.85,62.4 409.25,427.15 401.27,1111.33 -20.94,1528.5l-7070.08 6985.64c-426.24,421.14 -1119.51,416.97 -1540.65,-9.26z"/>
 </g>
</svg>
