<?xml version="1.0" encoding="UTF-8"?>
<!DOCTYPE svg PUBLIC "-//W3C//DTD SVG 1.1//EN" "http://www.w3.org/Graphics/SVG/1.1/DTD/svg11.dtd">
<!-- Creator: CorelDRAW 2021 (64 Bit) -->
<svg xmlns="http://www.w3.org/2000/svg" xml:space="preserve" width="254mm" height="254mm" version="1.1" style="shape-rendering:geometricPrecision; text-rendering:geometricPrecision; image-rendering:optimizeQuality; fill-rule:evenodd; clip-rule:evenodd"
viewBox="0 0 25400 25400"
 xmlns:xlink="http://www.w3.org/1999/xlink"
 xmlns:xodm="http://www.corel.com/coreldraw/odm/2003">
 <defs>
  <style type="text/css">
   <![CDATA[
    .fil0 {fill:white}
   ]]>
  </style>
 </defs>
 <g id="Camada_x0020_1">
  <metadata id="CorelCorpID_0Corel-Layer"/>
  <path class="fil0" d="M15432.08 4256.42l1624.45 1383.67c456.16,388.53 511.48,1079.61 122.95,1535.76l-4341.12 5096.62 5172.35 4340.12c459.01,385.15 519.43,1075.81 134.28,1534.81l-1371.62 1634.64c-385.16,459.01 -1075.81,519.43 -1534.81,134.28l-5898 -4949.01c-49.15,-29.76 -96.54,-63.75 -141.62,-102.14l-1316.46 -1121.33 -257.69 -216.23c-21.92,-18.39 -42.9,-37.49 -63,-57.21 -444.38,-390.46 -495.12,-1072.8 -110.25,-1524.66l6444.77 -7566.38c388.54,-456.15 1079.62,-511.46 1535.77,-122.94z"/>
 </g>
</svg>
