<?xml version="1.0" encoding="UTF-8"?>
<!DOCTYPE svg PUBLIC "-//W3C//DTD SVG 1.1//EN" "http://www.w3.org/Graphics/SVG/1.1/DTD/svg11.dtd">
<!-- Creator: CorelDRAW 2021 (64 Bit) -->
<svg xmlns="http://www.w3.org/2000/svg" xml:space="preserve" width="254mm" height="254mm" version="1.1" style="shape-rendering:geometricPrecision; text-rendering:geometricPrecision; image-rendering:optimizeQuality; fill-rule:evenodd; clip-rule:evenodd"
viewBox="0 0 25400 25400"
 xmlns:xlink="http://www.w3.org/1999/xlink"
 xmlns:xodm="http://www.corel.com/coreldraw/odm/2003">
 <defs>
  <style type="text/css">
   <![CDATA[
    .str0 {stroke:black;stroke-width:100;stroke-miterlimit:22.9256}
    .str2 {stroke:black;stroke-width:75;stroke-miterlimit:22.9256}
    .str1 {stroke:black;stroke-width:150;stroke-linejoin:round;stroke-miterlimit:22.9256}
    .fil0 {fill:none}
    .fil1 {fill:#00C2DC}
    .fil2 {fill:#00C2DC;fill-rule:nonzero}
   ]]>
  </style>
 </defs>
 <g id="Camada_x0020_1">
  <metadata id="CorelCorpID_0Corel-Layer"/>
  <path class="fil0 str0" d="M12290.57 4165.19c4522.38,0 8188.5,3666.12 8188.5,8188.51 0,4522.38 -3666.12,8188.5 -8188.5,8188.5 -4522.39,0 -8188.51,-3666.12 -8188.51,-8188.5 0,-4522.39 3666.12,-8188.51 8188.51,-8188.51z"/>
  <path class="fil1 str1" d="M14392.41 17801.58c-149.62,0 -617.43,-118.11 -785.97,-154.06 -280.83,-60.23 -534.82,-107.61 -802.57,-170.17l194.44 -972.52 1245.64 278.03c380.27,83.57 366.97,-28.72 271.73,363.69 -33.38,138.2 -119.75,501.67 -123.27,655.03zm-4109.93 -7602.57l-2982.66 0c20.31,-245.81 322.39,-691.91 480.66,-816.11 872.82,-685.62 1991.93,54.39 2502,816.11zm-226.89 -1459c1220.89,0 2774.2,291.79 3800.39,933.28 169.25,105.75 502.14,366.28 609.05,525.72l-2788.43 0c-96.66,-415.29 -875.4,-1137.09 -1352.1,-1338.79l-268.91 -120.21zm2723.3 -1880.36c860.93,0 1630.12,417.86 2139.95,778.28 544.84,385.18 1084.56,932.13 1459.01,1491.22l-972.75 0c-161.77,-694.72 -1212.96,-1474.87 -1821.55,-1842.07l-783.88 -415.75c-4.44,-2.35 -14.25,-7.25 -20.78,-11.68zm-7781.01 4376.99c3955.41,0 14883.89,439.11 14654.42,-291.79 -1339.94,-626.09 -3032.16,-2822.76 -4169.24,-3579.57 -1232.56,-820.31 -2603.1,-1186.58 -4227.83,-1186.58 -1490.99,0 -2997.36,717.13 -4063.03,1578.52l-371.39 309.55c-126.75,125.35 -229.24,230.64 -356.01,357.16l-340.35 372.79c-456.83,478.34 -1126.57,1609.1 -1126.57,2439.92zm3558.54 2868.88c17.98,-20.3 37.82,-43.17 59.53,-70.02 154.07,-190.48 247.91,-347.6 444.93,-495.6 1320.58,-990.71 2166.56,662.97 3256.5,662.97 179.98,0 192.35,-32.44 356.7,-32.44l551.14 2269.5c-110.42,-25.68 -193.29,-61.85 -324.25,-64.89l-36.41 128.39c-861.63,5.59 -1806.12,-401.05 -2498.75,-835.25 -283.16,-177.65 -951.73,-690.05 -1185.87,-921.63l-623.52 -641.03zm-1815.46 1005.21c515.2,0 643.13,-48.79 1102.31,-291.81 173.21,116.02 645.91,662.05 944.73,903.19 177.4,143.1 334.52,283.16 518.47,421.58 729.49,549.05 1977.24,1262.68 2912.62,1270.16 205.43,1.63 297.64,17.98 454.99,31.04l-36.43 128.63 1395.04 296.01c203.56,40.38 274.99,35.94 438.63,145.19 964.8,644.05 158.04,500.26 1769.24,500.26 -33.85,-145.2 -163.41,-411.08 -239.97,-538.32 -246.04,-408.98 -851.82,-909.7 -1316.37,-1018.03 47.39,-198.18 95.72,-203.55 -223.63,-262.62 -98.28,-18.44 -222.93,-52.75 -327.53,-61.62l-333.58 -2097.94c-31.04,-215.21 -100.85,-489.74 -120.21,-722.72 145.88,-34.08 223.86,-104.35 346.17,-172.5 135.87,-75.41 221.08,-116.73 353.43,-197.74 322.85,-197.94 651.53,-463.37 966.92,-654.08l932.82 -428.84c124.66,-44.59 123.26,-13.54 188.85,-102.94l-11542.2 0c7.71,339.89 780.86,2104.69 1010.81,2490.56 101.77,170.89 98.73,202.87 308.37,275.23 137.02,47.39 325.87,87.31 496.52,87.31z"/>
  <ellipse class="fil0 str0" cx="12290.57" cy="12640.65" rx="11865.89" ry="12152.84"/>
  <path class="fil2 str2" d="M3580.66 4860.5l911.12 -868.77c238.76,-227.66 439.53,-353.85 601.01,-378.22 161.94,-24.76 320.75,44.94 476.91,208.7l118.91 124.72c104.09,109.16 157.86,218.86 160.9,328.67 2.59,109.38 -44.77,223.17 -142.15,341.42 136.08,-86.53 268.44,-126.31 396.66,-118.93 128.2,7.39 240.97,62.55 338.72,165.06l109.17 114.5c175.19,183.74 247.76,360.25 217.73,528.69 -30.49,168.86 -179.06,380.02 -445.33,633.91l-897.82 856.08 -1845.83 -1935.83zm925.36 -63.87l327.54 343.5 367 -349.95c55.48,-52.9 85.69,-101.2 89.31,-144.49 4.08,-43.71 -16.52,-89.29 -60.95,-135.88l-74.48 -78.13c-44.86,-47.04 -88.99,-69.33 -132.85,-67.35 -43.4,1.57 -93.09,29.44 -148.57,82.35l-367 349.95zm680.45 713.63l345.28 362.13 386.55 -368.58c58.14,-55.44 89.28,-106.3 93.87,-153.04 5,-47.14 -15.97,-94.93 -63.38,-144.63l-77 -80.76c-47.39,-49.72 -94.11,-72.95 -141.44,-70.18 -46.92,2.35 -99.21,31.04 -157.33,86.49l-386.55 368.57zm1045.89 -2306.68l-254.17 -396.44 514.16 -329.65 254.17 396.45 -514.16 329.64zm1189.45 1855.32l-1020.67 -1592.02 514.17 -329.65 1020.66 1592.05 -514.16 329.62zm961.87 -600.44l-981.12 -2488.36 557.91 -219.98 548.38 1390.79 41.64 -16.42 80.8 -796.48 633.21 -249.65 -145.86 1034.35 935.38 687.16 -653.77 257.76 -695.03 -540.68 -41.62 16.43 278.01 705.09 -557.93 219.99zm3523.83 -1493.52c12.99,214.09 -32.61,375.65 -135.77,483.31 -103.74,107.77 -278.46,177.57 -525.45,208.95l-251.84 32.01c-274.32,34.87 -474.45,2.18 -599.6,-97.51 -125.86,-100.19 -206.58,-292.68 -242.84,-577.99l-49.24 -387.49c-36.03,-283.49 -6.01,-490.03 90.77,-618.56 96.08,-129.04 281.67,-210.73 556.02,-245.6l251.83 -31.99c274.35,-34.87 474.46,-2.2 599.78,98.72 125.86,100.22 206.58,292.69 242.61,576.17l37.64 296.27 -1142.43 145.18 29.32 230.54c10.66,83.93 35.88,141.31 74.88,170.97 39.69,30.2 103.29,39.42 191.5,28.21l76.63 -9.74c82.14,-10.43 138.14,-31.79 167.36,-64.55 29.83,-32.83 43.41,-86.49 41.19,-162.23l587.64 -74.67zm-1208.39 -432.44l558.42 -70.97 -8.35 -65.69c-15.85,-124.71 -42.87,-205.95 -80.89,-242.55 -38.02,-36.57 -104.54,-49.15 -199.43,-37.09l-76.64 9.75c-93.07,11.83 -153.79,39.94 -182.23,83.74 -28.96,44.48 -36.16,123.9 -21.56,238.87l10.68 83.94zm1726.39 977.95l238.39 -1876.02 577.29 73.36 -41.3 266.71c66.73,-97.2 144.99,-163.29 234.13,-198.33 89.75,-34.97 202.78,-44.09 339.05,-26.77 223.26,28.36 371.64,96.06 444.68,202.4 73.64,106.4 93.34,291.87 59.77,555.88l-154.82 1218.45 -594.95 -75.6 138.07 -1086.45c17.39,-136.87 12.8,-227.08 -13.73,-271.24 -25.85,-44.71 -96.9,-74.14 -211.87,-88.75 -91.26,-11.6 -157.39,2.89 -197.09,42.94 -40.32,40.01 -69.78,135.78 -89.11,287.86l-133.59 1051.16 -594.92 -75.6zm3942.35 378.03c-91.63,193.91 -209.34,313.6 -351.58,358.37 -142.81,44.55 -329.55,21.66 -561.15,-69.64l-236.18 -93.13c-257.28,-101.45 -416.98,-226.37 -478.74,-373.97 -62.11,-148.4 -40.26,-356 65.25,-623.54l143.26 -363.4c104.82,-265.83 230.5,-432.46 377.2,-498.56 146.33,-66.88 348.32,-49.21 605.6,52.24l236.17 93.11c257.27,101.45 416.97,226.37 478.27,375.13 62.12,148.42 40.26,355.98 -64.56,621.83l-109.53 277.82 -1071.34 -422.4 -85.25 216.19c-31.02,78.71 -36.52,141.15 -16.61,185.9 20.27,45.59 71.58,84.27 154.29,116.89l71.87 28.33c77.03,30.38 136.4,38.6 177.77,23.95 41.95,-14.43 79.66,-54.94 114.18,-122.41l551.08 217.29zm-851.26 -960.52l523.67 206.49 24.29 -61.61c46.11,-116.96 61.53,-201.17 45.81,-251.56 -15.74,-50.34 -68,-93.37 -156.99,-128.47l-71.87 -28.33c-87.3,-34.41 -154.05,-38.98 -200.05,-14.28 -46.78,25.07 -91.32,91.23 -133.84,199.05l-31.02 78.71zm1515.68 2053.71c-93.96,-60.23 -166.2,-124.76 -216.96,-194.44 -50.75,-69.69 -79.13,-144.71 -85.33,-225.9 -4.8,-58.43 2.63,-117.74 22.35,-175.77 19.51,-58.87 60.98,-137.17 123.86,-235.26l55.28 -86.22 410.71 -640.63 -182.73 -117.15 236.29 -368.57 182.74 117.15 196.59 -306.64 504.87 323.67 -196.58 306.64 675.21 432.89 -236.29 368.57 -675.21 -432.87 -416.68 649.92c-61.89,96.53 -90.43,164.91 -85.64,205.13 4.8,40.24 39.9,80.95 105.45,122.99 61.95,39.71 111.05,55.14 148.14,46.15 37.09,-9 77.06,-47.48 120.41,-115.1l85.06 -132.68 421.23 270.07 -115.17 179.65c-108.88,169.82 -228.73,269.28 -359.32,299.16 -130.8,29.07 -280.51,-10.1 -449.31,-118.32l-268.97 -172.44zm2623.73 1527.43c-164.61,137.46 -321.73,196.62 -469.6,177.47 -148.31,-19.57 -308.16,-118.8 -479.96,-298.98l-175.19 -183.72c-190.84,-200.15 -283.28,-380.62 -277.29,-540.51 5.98,-160.76 113.04,-339.95 321.19,-538.43l282.69 -269.55c206.8,-197.19 390.87,-295.59 551.75,-293.94 160.89,0.78 336.77,101.7 527.61,301.84l175.19 183.73c190.84,200.15 283.28,380.61 276.39,541.36 -5.99,160.78 -113.03,339.95 -319.85,537.16l-216.14 206.09 -794.69 -833.46 -168.2 160.39c-61.23,58.38 -92.46,112.73 -93.18,161.71 -0.76,49.89 29.55,106.55 90.91,170.89l53.32 55.92c57.13,59.92 107.54,92.32 151.24,96.4 44.13,4.53 95.38,-16.36 155.04,-63.09l408.77 428.72zm-368.89 -1229.29l388.46 407.39 47.92 -45.68c90.98,-86.77 140.36,-156.73 147.24,-209.04 6.89,-52.3 -22.45,-113.3 -88.48,-182.53l-53.3 -55.92c-64.76,-67.91 -123.41,-100.09 -175.53,-97 -53,3.09 -121.21,44.41 -205.08,124.4l-61.23 58.38z"/>
  <path class="fil2 str2" d="M4762.55 20926.6l1592.42 -2149.12 582.37 431.5 -1222.24 1649.54 960.75 711.87 -370.18 499.6 -1543.12 -1143.39zm2779.42 543.12l-134.89 270.53c-73.33,147.08 -105.06,245 -95.67,294.91 9.1,49.09 54.95,94.56 136.17,135.05l65.86 32.84c80.11,39.95 142.65,49.21 187.33,26.93 44.41,-21.72 103.26,-106.78 177.14,-254.95l134.9 -270.54c74.45,-149.27 107.23,-248.03 97.85,-296.55 -9.09,-49.08 -54.1,-93.45 -134.24,-133.4l-65.84 -32.85c-81.23,-40.5 -145.13,-49.75 -190.36,-26.39 -45.51,22.53 -104.9,107.33 -178.25,254.42zm-529.88 -314.27c127.79,-256.27 267.46,-411.35 419.33,-464.44 152.16,-53.65 351.3,-18.77 599.33,104.92l226.11 112.73c248.02,123.67 395.7,261.74 444.42,415.54 48.98,153.25 9.18,358.12 -118.61,614.4l-174.04 349.02c-128.34,257.38 -268.03,412.47 -419.9,465.57 -151.59,52.52 -350.73,17.65 -598.76,-106.02l-226.11 -112.75c-248.02,-123.68 -395.7,-261.74 -444.97,-414.43 -49,-153.23 -9.17,-358.14 119.16,-615.52l174.04 -349.02zm3275.96 1663.31c-2.62,9.46 -5.94,23.81 -9.98,43.06 -4.05,19.21 -7.35,33.58 -9.97,43.05 -65.27,236.42 -167.49,390.15 -306.09,461.31 -139.2,70.98 -340.01,70.26 -603.04,-2.35l-244.14 -67.37c-267.16,-73.75 -438.62,-180.87 -516.29,-321.26 -77.5,-140.99 -77.78,-349.71 -1.25,-626.96l103.59 -375.32c76.21,-276.05 183.52,-455.1 322.53,-536.96 138.99,-81.86 341.13,-85.86 608.29,-12.11l244.14 67.37c260.68,71.96 432.4,173.43 515.8,304.61 82.81,130.99 92.02,314.19 27.27,548.87l-13.39 48.47 -581.65 -160.56 4.74 -17.14c25.94,-93.98 27.93,-163.4 5.95,-208.26 -21.37,-44.72 -73.82,-78.28 -157.16,-101.28l-78.03 -21.52c-87.47,-24.16 -151.39,-20.81 -191.88,10.63 -40.31,30.85 -82.5,126.08 -126.23,284.5l-80.27 290.82c-43.72,158.41 -56.03,260.62 -37.26,307.8 18.96,46.57 72.12,82.24 159.59,106.38l78.01 21.54c83.95,23.17 147.09,20.23 188.69,-8.34 41.78,-29.21 76.4,-94.7 104.47,-196.38l11.91 -43.16 581.65 160.56zm948.19 469.92l164.48 12.54c59.92,4.57 105.59,-5.48 137.63,-30.72 32.07,-25.22 49.87,-65.06 54.06,-120.11l7.51 -98.43c4.29,-56.25 -7.22,-98.95 -35.1,-128.76 -27.83,-29.79 -71.47,-46.63 -131.37,-51.2l-164.48 -12.55c-61.15,-4.65 -108.06,5.92 -141.4,31.67 -33.34,25.75 -51.73,65.53 -55.94,120.58l-7.49 98.43c-4.21,55.03 7.97,97.15 37.05,127.05 29.09,29.9 73.92,46.84 135.05,51.5zm-627.56 -1077.33c16.1,-178.96 76.08,-304.15 179.82,-374.33 103.75,-70.2 269.97,-96.9 497.44,-79.57l284.93 21.73c265.34,20.24 449.47,81.62 553.59,184.26 103.48,102.61 147.02,265.81 129.95,489.61l-98.57 1293.18 -601.65 -45.87 13.08 -171.82c-55.22,62.84 -118.95,108.41 -190.52,135.52 -71.56,27.16 -153.48,36.9 -245.2,29.91l-217.06 -16.56c-160.78,-12.25 -282.07,-67.01 -361.95,-164.72 -80.56,-97.15 -114.04,-230.7 -101.23,-398.84l13.39 -175.48c12.4,-162.64 71.49,-284.21 177.19,-364.11 105.73,-79.87 250.89,-112.47 434.31,-98.49l165.09 12.59c86.22,6.58 162.75,27.15 229.59,61.78 66.87,34.62 120.47,81.74 160.2,141.34l28.16 -369.29c4.38,-57.48 -5.29,-100.05 -29.02,-127.67 -23.75,-27.03 -64.98,-43.09 -123.06,-47.51l-102.09 -7.79c-73.39,-5.59 -123.66,0.44 -151.46,17.98 -27.72,16.95 -43.21,50.82 -47.08,101.58l-597.85 -47.43zm3646.39 650.26c0.74,9.79 2.47,24.43 5.18,43.9 2.71,19.46 4.46,34.09 5.2,43.88 18.64,244.56 -25.51,423.81 -131.83,537.7 -106.93,113.92 -296.14,181.24 -568.23,201.96l-252.52 19.27c-276.36,21.07 -473.95,-21.69 -594.57,-127.5 -120.65,-106.4 -191.59,-302.72 -213.44,-589.49l-29.6 -388.23c-21.76,-285.56 18.59,-490.35 121.67,-614.44 103.1,-124.09 291.92,-196.3 568.28,-217.37l252.52 -19.24c269.65,-20.56 465.6,16.78 588.48,111.97 122.25,95.23 192.96,264.49 211.47,507.23l3.83 50.13 -601.66 45.87 -1.34 -17.73c-7.42,-97.24 -29.05,-163.23 -64.91,-198 -35.25,-34.84 -95.97,-48.64 -182.17,-42.08l-80.71 6.16c-90.49,6.89 -149.5,31.69 -176.94,74.98 -27.51,42.68 -34.94,146.58 -22.47,310.43l22.95 300.84c12.49,163.85 35.5,264.18 69.15,302.22 33.61,37.42 95.69,52.96 186.18,46.06l80.7 -6.14c86.81,-6.62 145.23,-30.76 174.72,-71.74 29.41,-41.62 39.82,-114.97 31.8,-220.13l-3.39 -44.66 601.65 -45.85zm-1110.17 1700.81l-17.61 -231.11 429.23 -32.73c57.45,-4.38 95.89,-16.53 115.86,-37.13 20,-19.96 28.4,-55.05 24.57,-105.2 -3.39,-44.62 -16.78,-74.96 -39.59,-91.68 -22.85,-17.32 -59.01,-23.78 -109.13,-19.95l-179.78 13.69 -28.8 -377.86 183.44 -13.98 13.42 176.08 176.69 -13.48c92.33,-7.03 162.21,14.09 210.9,63.89 48.07,49.85 76.38,130.7 84.95,243.21 10.59,138.78 -14.65,235.42 -75.01,290.44 -61,55.09 -184.43,89.72 -370.3,103.88l-418.84 31.93zm1789.16 -2265.39l80.44 291.41c43.72,158.41 85.57,252.47 125.91,283.32 39.57,30.43 104.06,33.62 191.56,9.48l70.91 -19.59c86.3,-23.82 139.02,-58.73 157.37,-105.13 18.53,-45.85 5.46,-148.45 -38.59,-308.06l-80.43 -291.41c-44.38,-160.79 -85.98,-256.19 -125.38,-285.99 -39.56,-30.44 -102.7,-33.38 -189.02,-9.54l-70.92 19.57c-87.49,24.14 -141.21,59.96 -159.26,107.57 -18.8,47.16 -6.32,149.95 37.41,308.37zm-604.2 120.31c-76.19,-276.03 -75.91,-484.75 1.59,-625.74 77.35,-141.59 248.79,-248.71 515.97,-322.45l243.53 -67.22c267.18,-73.73 469.3,-69.73 608.32,12.13 138.84,81.29 246.15,260.3 322.34,536.35l103.76 375.95c76.51,277.23 76.25,485.97 -1.27,626.94 -77.65,140.39 -249.11,247.51 -516.27,321.26l-243.55 67.22c-267.16,73.72 -469.3,69.72 -607.97,-10.96 -138.87,-81.26 -246.17,-260.3 -322.69,-537.53l-103.76 -375.95zm984.28 -1882.34c9.65,152.54 -5.29,271.19 -45.49,356.06 -40.18,84.88 -106.38,140.06 -198.59,165.5 -19.52,5.39 -40.7,9.33 -63.11,11.06 -23.02,1.9 -46.34,2.62 -71.2,2.46l-164.35 1.48c-23.5,0.14 -44.75,1.54 -63.88,3.64 -19.74,2.28 -37.95,5.39 -55.43,8.94 -39.61,10.94 -68,30.22 -86.36,58.17 -18.96,28.16 -28.4,67.64 -28.93,118.69l-190.94 52.69c-10.88,-147.75 3.29,-262.36 42.94,-344.54 39.82,-81.6 105.75,-135.43 198.55,-161.03 28.37,-7.83 55.48,-13.41 80.1,-16.38 24.63,-2.98 49.57,-4.78 74.58,-4.04l174.26 2.16c14.89,0.97 30.66,0.42 46.69,-1.44 16.61,-2.05 34.05,-5.6 52.39,-10.66 37.24,-10.26 64.55,-31.17 82.52,-62.86 17.98,-31.67 26.61,-74.12 25.32,-127.2l190.93 -52.7zm2640.51 1087.55c81.22,198.5 90.05,366.15 27.06,501.29 -63.54,135.43 -206.5,257.76 -430.22,366.98l-228.12 111.39c-248.52,121.32 -448.49,154.81 -599.09,100.72 -151.42,-54.36 -289.8,-210.63 -415.98,-469.07l-171.36 -351.01c-125.36,-256.79 -163.46,-462 -113.19,-614.84 49.44,-153.1 198.84,-290.2 447.36,-411.52l228.14 -111.36c248.5,-121.34 448.5,-154.81 599.61,-99.63 151.43,54.36 289.82,210.61 415.18,467.42l131.01 268.36 -1034.85 505.21 101.94 208.85c37.13,76.04 79.47,122.23 125.95,137.76 47.31,15.82 110.49,4.06 190.38,-34.94l69.42 -33.89c74.41,-36.33 120.56,-74.56 137.67,-114.99 17.67,-40.67 13.25,-95.85 -13.22,-166.85l532.31 -259.88zm-1283.28 -20.4l505.86 -246.97 -29.05 -59.5c-55.16,-112.96 -106.89,-181.19 -154.67,-203.6 -47.77,-22.37 -114.78,-12.87 -200.76,29.09l-69.42 33.9c-84.31,41.17 -132.74,87.33 -145.57,137.94 -13.11,51.44 5.65,128.96 56.48,233.1l37.13 76.04zm1488.81 -46.93l488.08 -385.24c51.97,48.03 98.94,71.9 142.21,71.32 42.82,-0.19 99.31,-27.59 167.65,-81.54l63.54 -50.16c74.13,-58.52 116.32,-108.99 127.89,-151.72 11.11,-42.34 -4.57,-90.92 -47.5,-145.3 -41.04,-51.98 -82.53,-77.84 -124,-77.92 -41.94,0.3 -106.76,28.04 -195.43,83.96l-325.28 211.44c-138,89.4 -273.19,128.94 -404.35,119.17 -131.52,-10.25 -237.94,-66.88 -319.61,-170.35l-93.45 -118.42c-103.34,-130.92 -134.44,-267.32 -93.27,-409.16 40.77,-142.35 151.83,-284.7 332.31,-427.16l291.7 -230.24c167.99,-132.59 320.03,-200.24 455.67,-202.63 134.74,-2.47 253.47,60.87 355.28,189.87l25.44 32.23 -467.84 369.28c-34.58,-39.88 -73.93,-58.05 -117.9,-55.36 -44.47,3.06 -96.73,27.92 -156.9,75.4l-60.64 47.86c-64.99,51.29 -102.34,97.98 -112.68,141.29 -10.35,43.33 4.69,90.07 44.95,141.08 33.43,42.36 67.08,64.22 100.89,66.46 34.17,2.69 79,-14.71 135.28,-51.31l360.44 -232.18c166.49,-108.75 310.79,-162.48 432.13,-162.16 121.34,0.3 224.5,54.8 309.62,162.62l100.29 127.07c108.28,137.17 146.58,282.71 114.65,435.24 -32.41,152.91 -131.22,294.98 -296.8,425.67l-315.76 249.24c-190.61,150.45 -359.95,227.87 -508.42,231.78 -147.98,3.52 -279.01,-66.47 -392.6,-210.39l-15.59 -19.74z"/>
 </g>
</svg>
